<svg width="500" height="500" viewBox="0 0 500 500" fill="none" xmlns="http://www.w3.org/2000/svg">
<circle cx="250" cy="250" r="250" fill="#0088CC"/>
<path d="M142.56 170.091L250.265 100.964L358.176 170.283L251.134 239.602L142.56 170.091Z" fill="white"/>
<rect x="231.603" y="197.857" width="37.5318" height="129.829" rx="18.7659" fill="white"/>
<path fill-rule="evenodd" clip-rule="evenodd" d="M321.602 259.543L358.368 235.869V324.24C358.368 350.876 343.618 373.4 323.102 388.598C302.568 403.809 275.158 412.708 245.994 412.708C217.291 412.708 191.989 405.017 173.461 390.1C154.671 374.973 143.999 353.252 143.941 328.353L142 235.878L179.278 259.881L180.702 327.763L180.706 327.956V328.149C180.706 341.949 186.302 353.238 196.517 361.462C207.044 369.937 223.577 375.942 245.994 375.942C267.952 375.942 287.537 369.189 301.217 359.055C314.917 348.906 321.602 336.387 321.602 324.24V259.543Z" fill="white"/>
</svg>
